<svg width="200" height="200" viewBox="0 0 200 200" fill="none" xmlns="http://www.w3.org/2000/svg">
<path d="M129.029 184.547C131.643 183.656 134.553 184.878 135.588 187.439C136.622 189.999 135.389 192.926 132.78 193.831C112.002 201.041 89.419 201.198 68.5427 194.279C65.9218 193.41 64.6477 190.501 65.6462 187.927C66.6449 185.353 69.538 184.089 72.1638 184.943C90.661 190.96 110.618 190.821 129.029 184.547ZM185.506 127.441C186.367 124.818 189.096 123.23 191.763 123.944C194.431 124.659 196.025 127.406 195.178 130.034C188.432 150.967 174.967 169.097 156.878 181.606C154.606 183.176 151.516 182.443 150.061 180.096C148.606 177.749 149.338 174.678 151.6 173.095C167.537 161.943 179.436 145.922 185.506 127.441ZM7.74293 122.017C10.4244 121.358 13.1189 123.004 13.9255 125.645C19.6065 144.248 31.167 160.515 46.867 171.998C49.0958 173.628 49.7635 176.714 48.2595 179.03C46.7555 181.346 43.6507 182.014 41.4128 180.397C23.5894 167.512 10.5074 149.104 4.20094 128.034C3.40912 125.389 5.06122 122.675 7.74293 122.017ZM43.988 43.1749C43.7288 41.9257 42.3973 37.6397 45.0017 40.1104C48.1127 43.2194 50.9343 45.6369 54.6404 48.1974C59.6357 51.5674 64.931 54.4963 70.2117 57.3624C75.8506 60.3762 81.6033 63.3674 86.8455 67.0714C88.6266 68.3384 90.3128 69.7235 91.9421 71.1505C92.5675 71.6606 93.3245 72.6299 94.0935 72.7452C94.4821 72.8158 94.9173 72.3627 95.2371 71.9337C95.7107 71.3123 96.2068 70.5853 96.6238 69.9923C96.7213 69.8523 96.8151 69.7158 96.908 69.5821C96.8946 69.5924 96.8813 69.6031 96.8679 69.6134C96.8679 69.6134 97.9304 67.8943 99.6355 65.8214C100.57 64.6508 101.586 63.5355 102.705 62.545C104.896 60.5262 107.491 58.8323 110.11 58.7208C115.893 58.4747 122.632 61.3652 124.357 62.1554C124.412 62.1573 124.467 62.1593 124.521 62.1602C126.412 61.9226 128.181 61.7066 129.864 61.504C130.225 61.451 130.585 61.4016 130.943 61.3595C132.101 61.2224 133.255 61.0936 134.408 60.9727C141.66 60.1485 147.832 59.5783 156.743 58.8634C157.791 58.7793 158.492 58.7403 158.896 58.7354C159.029 58.5897 159.165 58.4426 159.304 58.294C164.17 63.4842 165.091 66.9894 164.993 69.0333C164.834 72.3185 161.934 73.8145 159.304 73.8145H159.303C156.675 73.8142 153.773 72.3167 153.616 69.0313C153.522 67.0786 154.361 63.7922 158.679 58.9767C157.127 59.3176 152.948 59.9743 148.133 60.6866C148.466 61.0258 133.68 63.5809 128.757 64.7931C128.801 64.8085 128.819 64.8316 128.8 64.8673V64.8751L128.798 64.8819C128.672 65.0923 128.235 65.2845 127.677 65.5616C126.535 66.104 125.43 66.6382 124.378 67.2999C122.131 68.6803 120.096 70.4603 118.576 72.6261C117.186 74.5953 116.091 76.7529 115.213 78.9913C114.375 81.1367 113.887 83.3814 113.182 85.5714C111.213 91.9714 107.647 97.4182 101.836 100.924C98.579 102.964 94.8361 104.165 91.0632 104.839C90.3048 104.956 89.0068 104.938 87.9402 104.924C87.2703 105.04 87.1096 104.963 86.8523 104.923C86.4125 105.151 85.8212 105.371 85.6765 105.434C84.456 105.897 83.1119 106.464 81.8914 107.077C78.5902 108.68 75.3299 110.632 72.7351 113.272C63.1392 122.969 65.3269 136.131 75.9548 143.962C81.4077 148.026 88.0048 150.18 94.6599 151.31C98.6694 151.945 102.699 152.332 106.758 151.923C120.578 150.599 132.868 141.347 137.616 128.268C142.605 115.156 139.229 99.8875 129.666 89.7267C128.526 88.4556 126.98 87.1703 125.794 85.9903C125.77 85.9642 125.749 85.9421 125.731 85.922C125.695 85.8775 125.674 85.8512 125.68 85.837C125.8 85.8957 125.914 85.9655 126.026 86.0411C125.158 85.3182 124.259 84.6392 123.325 84.0255C122.797 83.6957 122.348 83.4226 121.832 83.1231C121.338 82.7669 118.304 81.3545 119.141 80.9718L119.157 80.9679C119.639 80.9482 120.324 81.2465 120.8 81.4933C121.783 81.9709 122.727 82.5237 123.668 83.0763C128.647 86.0577 133.055 90.3691 136.516 94.9434C138.727 98.0787 140.842 101.577 142.117 105.191C143.287 108.365 144.057 111.725 144.393 115.108C144.707 117.858 144.837 120.67 144.519 123.429C143.813 130.163 141.349 136.711 137.259 142.15C135.767 144.133 133.943 146.186 132.156 147.861C130.97 148.979 129.656 149.847 128.339 150.831C124.1 153.964 119.19 156.104 114.138 157.583C109.862 158.808 105.247 159.231 100.761 159.174C98.8812 159.101 96.4413 159.246 95.1687 159.104C94.8786 159.115 94.6694 159.106 94.5222 159.085C93.0316 159.319 89.6793 159.087 89.0369 158.89C87.3994 158.819 85.4847 158.24 83.7683 157.894C79.1839 156.983 74.9284 155.106 70.7488 153.017C68.3867 151.802 66.0143 150.45 63.9558 148.8C61.5474 146.863 59.2763 144.781 57.4568 142.261C56.0987 140.417 55.099 138.35 54.1902 136.251C53.3583 134.274 52.9189 131.96 52.6355 129.784C52.4473 128.274 52.0852 128.584 51.5955 129.662C48.944 135.536 47.9014 141.617 49.8201 147.903C50.0205 148.579 50.2413 149.254 50.4822 149.92C50.5776 150.236 51.1115 151.524 50.7615 151.413C50.0916 150.84 49.3281 149.321 48.8767 148.39C48.31 147.196 47.7517 145.972 47.3347 144.732C46.8915 143.38 46.4945 142.005 46.3103 140.608C46.1545 139.295 46.1732 137.959 46.24 136.634C46.4667 132.985 47.3608 129.341 48.905 126.02C50.166 123.168 52.1259 120.625 54.239 118.38C56.7171 115.841 59.5361 113.619 62.5789 111.775C58.2554 113.934 54.2829 116.82 50.9285 120.293C49.3275 121.993 47.9488 123.776 46.7283 125.76C45.5867 127.758 44.7224 129.877 44.0545 132.081C43.2691 134.698 42.8703 137.481 42.8298 140.22C42.8238 140.711 42.8704 141.767 42.5105 141.73C41.2293 141.092 41.9128 135.581 42.1091 134.196C42.4391 132.118 42.9758 130.07 43.7156 128.103L43.8298 127.81C42.3114 131.546 41.5609 135.604 41.5994 139.771C41.5792 139.973 41.5489 140.09 41.5105 140.107C41.4295 140.145 41.2975 139.762 41.1882 139.108C40.571 134.374 41.5042 129.69 43.1052 125.264C43.4687 124.317 43.882 123.388 44.363 122.498C39.785 127.387 37.244 132.327 35.6003 139.202C35.2907 140.078 35.05 139.941 35.0115 139.012C34.9427 136.943 35.2113 134.988 35.5837 132.996C35.9238 131.09 36.4223 129.254 37.1003 127.479C39.7438 120.19 44.4129 115.204 50.7117 110.885C53.4664 108.95 56.3854 107.177 59.3709 105.669C59.9796 105.336 60.5608 105.035 61.1511 104.772C59.7692 105.18 58.3823 105.66 57.0027 106.1C50.7301 108.136 44.9063 111.541 40.3015 116.259C40.1903 116.364 40.071 116.471 39.9597 116.565C39.555 116.905 39.3327 116.979 39.4177 116.676C39.6323 116.111 40.1724 115.407 40.5974 114.895C41.8321 113.421 43.1543 112.051 44.5974 110.777C47.9592 107.893 51.5842 105.576 55.6746 103.937C56.047 103.783 56.4154 103.634 56.7898 103.483C65.0034 100.199 73.2498 96.9751 80.7166 92.2003C81.7882 91.4963 82.7703 90.6603 83.8074 89.8946C83.5117 90.0271 83.2141 90.1507 82.9148 90.2599C80.2877 90.9006 77.9416 90.7239 75.4744 90.6065C74.9117 90.6511 70.9523 90.1385 72.9744 89.337C74.0066 88.9504 76.6092 88.143 77.0466 87.6876C77.0385 87.637 76.8242 87.6469 76.4783 87.6934C75.6889 87.8108 74.7816 88.005 73.9841 88.088C71.8996 88.347 69.8111 88.1406 67.7771 87.6407C65.5891 87.1064 63.5786 86.212 61.7205 85.0138C61.1456 84.5948 59.8343 83.933 59.8279 83.1964C59.9918 82.4839 62.7169 82.8597 63.405 82.7686C63.8402 82.7633 64.2774 82.7509 64.7156 82.7364C58.5906 81.7106 53.4007 78.4895 49.5017 73.2354C49.2392 72.8432 48.6205 72.0289 48.3406 71.4669C47.8992 71.1851 47.2683 70.517 46.8328 70.1466C45.509 69.0131 44.2719 67.7799 43.1951 66.3995C40.6368 63.1368 38.7447 59.3659 37.2712 55.5001C36.2774 53.0044 37.682 53.6113 39.0584 54.672C40.0946 55.4289 41.1207 56.1457 42.242 56.8116C43.9037 57.7568 45.6468 58.5583 47.4138 59.295C49.9039 60.2435 52.5879 61.0476 55.0681 61.9112C54.6439 61.6123 54.2429 61.2702 53.8582 60.879C49.2148 57.4241 46.1466 52.5621 44.8689 46.5382C44.855 46.4523 44.8341 46.3488 44.8123 46.2325C44.5122 45.2192 44.2428 44.1968 43.988 43.1749ZM142.433 114.749C142.461 115.534 142.439 116.322 142.403 117.115C142.373 118.202 142.356 119.317 142.237 120.392C141.836 123.31 141.355 126.309 140.284 129.035C135.234 143.546 121.452 154.048 106.146 155.182C98.1512 155.929 90.1193 154.392 82.6951 151.453C76.4935 149.249 70.512 146.164 65.9822 141.286C65.3881 140.756 62.4714 136.739 64.2136 139.878C68.0168 146.057 74.1762 150.565 80.7625 153.459C85.6302 155.406 91.0059 156.664 96.1287 157.287C98.2782 157.516 100.406 157.648 102.574 157.646C102.788 157.688 104.738 157.555 105.367 157.614C109.524 156.946 113.644 155.969 117.551 154.46C126.092 151.199 133.725 145.201 138.255 137.176C140.503 133.276 141.762 128.918 142.404 124.473C142.785 121.259 142.778 117.973 142.433 114.749ZM42.0711 139.951C42.1112 139.997 42.1134 140.005 42.1638 139.963V139.961C42.1136 140.003 42.1118 139.995 42.072 139.949L42.0711 139.951ZM16.4529 44.4034C17.9705 42.0964 21.1113 41.6182 23.3396 43.2491C25.5677 44.8801 26.0386 48.0021 24.5339 50.3175C13.935 66.6271 8.9047 85.939 10.2 105.347C10.3838 108.102 8.44948 110.597 5.70875 110.934C2.968 111.27 0.459858 109.322 0.260505 106.567C-1.32603 84.6319 4.36658 62.7775 16.4529 44.4034ZM174.861 40.8683C177.037 39.1683 180.191 39.5477 181.78 41.8058C194.438 59.7912 200.814 81.456 199.917 103.431C199.804 106.19 197.359 108.217 194.609 107.967C191.859 107.717 189.847 105.283 189.944 102.524C190.629 83.0844 184.995 63.9396 173.888 47.9708C172.312 45.7038 172.685 42.5683 174.861 40.8683ZM91.8113 82.0587C91.8102 82.0492 91.8085 82.0398 91.8074 82.0304C91.7975 82.0252 91.7873 82.0203 91.7771 82.0147C91.7884 82.0296 91.8005 82.0437 91.8113 82.0587ZM156.078 67.2071C155.772 67.1462 155.473 67.3435 155.412 67.6485C155.104 69.179 155.407 70.3528 156.311 71.1378C157.042 71.7711 158.133 72.1338 159.304 72.1339C159.617 72.1339 159.87 71.8817 159.87 71.5704C159.87 71.2596 159.617 71.0069 159.304 71.0069C158.415 71.0069 157.573 70.738 157.053 70.2872C156.47 69.7809 156.296 68.9898 156.521 67.8702C156.583 67.5653 156.384 67.2684 156.078 67.2071ZM106.627 4.58798C106.819 1.83342 109.211 -0.256412 111.953 0.0733328C133.788 2.70147 154.155 12.4598 169.886 27.8302C171.86 29.76 171.731 32.9335 169.705 34.8097C167.679 36.6859 164.524 36.5528 162.538 34.6339C148.55 21.1176 130.553 12.4943 111.255 10.0626C108.515 9.71737 106.434 7.34265 106.627 4.58798ZM88.3943 0.0323172C91.1369 -0.287829 93.5209 1.81031 93.7039 4.56552C93.8868 7.32083 91.7983 9.68885 89.0574 10.0245C69.7506 12.3889 51.7229 20.9487 37.6882 34.4161C35.6958 36.3277 32.5417 36.4496 30.5222 34.5665C28.5027 32.6832 28.3832 29.509 30.365 27.586C46.1489 12.2707 66.5499 2.58422 88.3943 0.0323172Z" fill="#003366"/>
</svg>
