<svg width="2048" height="2048" viewBox="0 0 2048 2048" fill="none" xmlns="http://www.w3.org/2000/svg">
<path d="M1405.89 1422.88L1394.99 1454.09L1362.41 1448.32L1349.33 1478.67L1317.25 1470.62L1302.06 1499.99L1270.64 1489.7L1253.4 1517.91L1222.78 1505.43L1203.61 1532.36L1173.94 1517.73L1152.9 1543.27L1124.36 1526.59L1101.56 1550.58L1074.27 1531.91L1049.84 1554.24L1028.2 1537.09L1026.68 1539.94L1230.57 1924L1375.43 1730.07L1617.22 1718.71L1446.65 1397.46L1438.77 1426.33L1405.89 1422.88Z" fill="url(#paint0_linear_111_5)"/>
<path d="M997.995 1554.24L973.59 1531.91L946.272 1550.58L923.501 1526.59L894.935 1543.27L873.889 1517.73L844.222 1532.36L825.049 1505.43L794.431 1517.91L777.19 1489.7L745.77 1499.99L730.58 1470.62L698.505 1478.67L685.426 1448.32L652.846 1454.09L641.936 1422.88L609.06 1426.33L603.055 1404.33L436.173 1718.71L677.935 1730.07L822.79 1924L1026.68 1539.94L1023.53 1533.99L997.995 1554.24Z" fill="url(#paint1_linear_111_5)"/>
<path d="M1023.92 1533.7L1023.53 1534L1026.68 1539.94L1028.2 1537.09L1023.92 1533.7Z" fill="url(#paint2_linear_111_5)"/>
<path d="M1026.68 1293.48L1128.76 1347.67L1028.2 1537.09L1049.84 1554.24L1074.27 1531.91L1101.56 1550.58L1124.36 1526.59L1152.9 1543.27L1173.94 1517.73L1203.61 1532.36L1222.78 1505.43L1253.4 1517.91L1270.64 1489.7L1302.06 1499.99L1317.25 1470.62L1349.33 1478.67L1362.41 1448.32L1394.99 1454.09L1405.89 1422.88L1438.77 1426.33L1446.65 1397.46L1311.25 1142.41L1026.68 1293.48Z" fill="url(#paint3_linear_111_5)"/>
<path d="M641.938 1422.88L652.847 1454.09L685.427 1448.32L698.507 1478.67L730.581 1470.62L745.771 1499.99L777.191 1489.7L794.433 1517.91L825.05 1505.43L844.224 1532.36L873.89 1517.73L894.936 1543.27L923.503 1526.59L946.273 1550.58L973.591 1531.91L997.996 1554.24L1023.53 1533.99L924.603 1347.67L1026.68 1293.48L742.115 1142.41L603.056 1404.33L609.061 1426.33L641.938 1422.88Z" fill="url(#paint4_linear_111_5)"/>
<path d="M1023.53 1533.99L1023.92 1533.7L1028.2 1537.08L1128.76 1347.67L1026.68 1293.48L924.602 1347.67L1023.53 1533.99Z" fill="url(#paint5_linear_111_5)"/>
<path d="M1023.53 1533.99L1023.92 1533.7L1028.2 1537.08L1128.76 1347.67L1026.68 1293.48L924.602 1347.67L1023.53 1533.99Z" fill="black" fill-opacity="0.2"/>
<path d="M1023.92 124L1047.79 144.333L1073.02 125.754L1095.38 147.692L1121.86 130.926L1142.64 154.41L1170.23 139.576L1189.28 164.427L1217.88 151.586L1235.12 177.745L1264.55 166.924L1279.92 194.243L1310 185.533L1323.41 213.862L1354.05 207.292L1365.44 236.483L1396.44 232.114L1405.75 262.018L1436.99 259.848L1444.15 290.347L1475.48 290.377L1480.45 321.321L1511.72 323.551L1514.51 354.763L1545.52 359.192L1546.11 390.524L1576.73 397.123L1575.1 428.424L1605.18 437.194L1601.34 468.287L1630.74 479.137L1624.71 509.874L1653.28 522.804L1645.1 553.036L1672.69 567.929L1662.4 597.536L1688.83 614.331L1676.49 643.106L1701.7 661.744L1687.34 689.597L1711.18 709.93L1694.89 736.713L1717.22 758.681L1699.11 784.245L1719.83 807.758L1699.95 831.955L1718.97 856.866L1697.42 879.606L1714.63 905.795L1691.53 926.989L1706.87 954.308L1682.32 973.808L1695.69 1002.14L1669.83 1019.85L1681.16 1049.07L1654.14 1064.92L1663.38 1094.88L1635.29 1108.76L1642.4 1139.29L1613.41 1151.18L1618.32 1182.13L1588.56 1191.94L1591.3 1223.15L1560.95 1230.85L1561.45 1262.18L1530.63 1267.71L1528.93 1298.98L1497.78 1302.34L1493.88 1333.4L1462.58 1334.56L1456.52 1365.3L1425.19 1364.2L1416.95 1394.43L1385.8 1391.16L1375.46 1420.74L1344.63 1415.27L1332.2 1444.04L1301.82 1436.4L1287.44 1464.23L1257.65 1454.48L1241.33 1481.23L1212.32 1469.37L1194.16 1494.91L1166.07 1481.05L1146.12 1505.22L1119.07 1489.44L1097.49 1512.15L1071.63 1494.49L1048.47 1515.62L1023.92 1496.15L999.362 1515.62L976.235 1494.49L950.344 1512.15L928.763 1489.44L901.712 1505.22L881.796 1481.05L853.675 1494.91L835.512 1469.37L806.5 1481.23L790.18 1454.48L760.395 1464.23L746.007 1436.4L715.627 1444.04L703.232 1415.27L672.376 1420.74L662.031 1391.16L630.879 1394.43L622.644 1364.2L591.343 1365.3L585.249 1334.56L553.948 1333.4L550.053 1302.34L518.9 1298.98L517.236 1267.71L486.38 1262.18L486.915 1230.85L456.535 1223.15L459.27 1191.94L429.514 1182.13L434.449 1151.18L405.436 1139.29L412.541 1108.76L384.479 1094.88L393.694 1064.92L366.674 1049.07L377.999 1019.85L352.167 1002.14L365.514 973.808L340.99 954.308L356.299 926.989L333.202 905.795L350.414 879.606L328.892 856.866L347.887 831.955L328 807.758L348.749 784.245L330.616 758.681L352.94 736.713L336.68 709.93L360.491 689.597L346.133 661.744L371.34 643.106L359.004 614.331L385.46 597.536L375.175 567.929L402.731 553.036L394.557 522.804L423.123 509.874L417.089 479.137L446.488 468.287L442.653 437.194L472.736 428.424L471.101 397.123L501.748 390.524L502.313 359.192L533.347 354.763L536.112 323.551L567.384 321.321L572.348 290.377L603.709 290.347L610.843 259.848L642.115 262.018L651.39 232.114L682.423 236.483L693.779 207.292L724.426 213.862L737.833 185.533L767.945 194.243L783.314 166.924L812.713 177.745L829.983 151.586L858.55 164.427L877.605 139.576L905.22 154.41L925.969 130.926L952.455 147.692L974.838 125.754L1000.05 144.333L1023.92 124Z" fill="url(#paint6_linear_111_5)"/>
<path d="M1023.92 124L1047.79 144.333L1073.02 125.754L1095.38 147.692L1121.86 130.926L1142.64 154.41L1170.23 139.576L1189.28 164.427L1217.88 151.586L1235.12 177.745L1264.55 166.924L1279.92 194.243L1310 185.533L1323.41 213.862L1354.05 207.292L1365.44 236.483L1396.44 232.114L1405.75 262.018L1436.99 259.848L1444.15 290.347L1475.48 290.377L1480.45 321.321L1511.72 323.551L1514.51 354.763L1545.52 359.192L1546.11 390.524L1576.73 397.123L1575.1 428.424L1605.18 437.194L1601.34 468.287L1630.74 479.137L1624.71 509.874L1653.28 522.804L1645.1 553.036L1672.69 567.929L1662.4 597.536L1688.83 614.331L1676.49 643.106L1701.7 661.744L1687.34 689.597L1711.18 709.93L1694.89 736.713L1717.22 758.681L1699.11 784.245L1719.83 807.758L1699.95 831.955L1718.97 856.866L1697.42 879.606L1714.63 905.795L1691.53 926.989L1706.87 954.308L1682.32 973.808L1695.69 1002.14L1669.83 1019.85L1681.16 1049.07L1654.14 1064.92L1663.38 1094.88L1635.29 1108.76L1642.4 1139.29L1613.41 1151.18L1618.32 1182.13L1588.56 1191.94L1591.3 1223.15L1560.95 1230.85L1561.45 1262.18L1530.63 1267.71L1528.93 1298.98L1497.78 1302.34L1493.88 1333.4L1462.58 1334.56L1456.52 1365.3L1425.19 1364.2L1416.95 1394.43L1385.8 1391.16L1375.46 1420.74L1344.63 1415.27L1332.2 1444.04L1301.82 1436.4L1287.44 1464.23L1257.65 1454.48L1241.33 1481.23L1212.32 1469.37L1194.16 1494.91L1166.07 1481.05L1146.12 1505.22L1119.07 1489.44L1097.49 1512.15L1071.63 1494.49L1048.47 1515.62L1023.92 1496.15L999.362 1515.62L976.235 1494.49L950.344 1512.15L928.763 1489.44L901.712 1505.22L881.796 1481.05L853.675 1494.91L835.512 1469.37L806.5 1481.23L790.18 1454.48L760.395 1464.23L746.007 1436.4L715.627 1444.04L703.232 1415.27L672.376 1420.74L662.031 1391.16L630.879 1394.43L622.644 1364.2L591.343 1365.3L585.249 1334.56L553.948 1333.4L550.053 1302.34L518.9 1298.98L517.236 1267.71L486.38 1262.18L486.915 1230.85L456.535 1223.15L459.27 1191.94L429.514 1182.13L434.449 1151.18L405.436 1139.29L412.541 1108.76L384.479 1094.88L393.694 1064.92L366.674 1049.07L377.999 1019.85L352.167 1002.14L365.514 973.808L340.99 954.308L356.299 926.989L333.202 905.795L350.414 879.606L328.892 856.866L347.887 831.955L328 807.758L348.749 784.245L330.616 758.681L352.94 736.713L336.68 709.93L360.491 689.597L346.133 661.744L371.34 643.106L359.004 614.331L385.46 597.536L375.175 567.929L402.731 553.036L394.557 522.804L423.123 509.874L417.089 479.137L446.488 468.287L442.653 437.194L472.736 428.424L471.101 397.123L501.748 390.524L502.313 359.192L533.347 354.763L536.112 323.551L567.384 321.321L572.348 290.377L603.709 290.347L610.843 259.848L642.115 262.018L651.39 232.114L682.423 236.483L693.779 207.292L724.426 213.862L737.833 185.533L767.945 194.243L783.314 166.924L812.713 177.745L829.983 151.586L858.55 164.427L877.605 139.576L905.22 154.41L925.969 130.926L952.455 147.692L974.838 125.754L1000.05 144.333L1023.92 124Z" fill="black" fill-opacity="0.2"/>
<path d="M1023.92 1432.21C941.249 1432.21 861.048 1416.01 785.544 1384.08C712.626 1353.23 647.11 1309.09 590.898 1252.84C534.656 1196.6 490.513 1131.12 459.658 1058.2C427.732 982.694 411.531 902.493 411.531 819.825C411.531 737.157 427.732 656.956 459.658 581.452C490.513 508.534 534.656 443.047 590.898 386.806C647.139 330.564 712.626 286.421 785.544 255.565C861.048 223.639 941.249 207.439 1023.92 207.439C1106.59 207.439 1186.79 223.639 1262.29 255.565C1335.21 286.421 1400.69 330.564 1456.94 386.806C1513.18 443.047 1557.32 508.534 1588.18 581.452C1620.1 656.956 1636.3 737.157 1636.3 819.825C1636.3 902.493 1620.1 982.694 1588.18 1058.2C1557.32 1131.12 1513.18 1196.6 1456.94 1252.84C1400.69 1309.09 1335.21 1353.23 1262.29 1384.08C1186.79 1416.01 1106.59 1432.21 1023.92 1432.21ZM1023.92 223.58C943.419 223.58 865.329 239.335 791.846 270.428C720.86 300.452 657.098 343.435 602.313 398.22C547.557 452.976 504.574 516.738 474.521 587.754C443.427 661.266 427.672 739.327 427.672 819.825C427.672 900.323 443.427 978.413 474.521 1051.9C504.544 1122.88 547.528 1186.64 602.313 1241.43C657.068 1296.18 720.83 1339.17 791.846 1369.22C865.358 1400.31 943.419 1416.07 1023.92 1416.07C1104.42 1416.07 1182.51 1400.31 1255.99 1369.22C1326.97 1339.2 1390.74 1296.21 1445.52 1241.43C1500.28 1186.67 1543.26 1122.91 1573.31 1051.9C1604.41 978.383 1620.16 900.323 1620.16 819.825C1620.16 739.327 1604.41 661.236 1573.31 587.754C1543.29 516.768 1500.31 453.006 1445.52 398.22C1390.77 343.465 1327 300.481 1255.99 270.428C1182.48 239.335 1104.42 223.58 1023.92 223.58Z" fill="white"/>
<path d="M758.323 839.562C745.443 809.052 730.799 804.098 726.619 803.305C724.574 802.915 722.768 803.045 721.231 803.559C729.263 825.94 758.988 940.512 763.483 957.881C774.657 964.363 786.521 973.196 797.516 981.647C788.52 947.097 768.734 871.777 760.682 846.368C759.986 844.199 758.982 841.119 758.323 839.562Z" fill="#FACBAE"/>
<path d="M710.088 803.647C699.295 778.937 689.633 774.783 685.976 774.139C682.543 773.522 680.598 775.116 679.923 775.83C675.286 780.703 680.961 807.888 685.964 831.869L686.036 832.22C692.637 863.924 699.116 899.491 700.247 905.741C712.477 924.441 722.586 941.437 727.006 948.997C733.443 946.813 741.441 947.711 751.178 951.728C737.935 900.713 715.711 816.929 710.847 805.401L710.088 803.647Z" fill="#FACBAE"/>
<path d="M1321.93 1057.09C1307.45 1080.91 1272.47 1104.24 1238.64 1126.77C1209.84 1145.96 1182.26 1164.34 1165.43 1183.53C1160.24 1189.44 1156.06 1195.42 1153.19 1201.53C1139.45 1230.89 1141.5 1293.53 1145.57 1340.43C1146.58 1352.05 1140.77 1363.16 1130.74 1369.1C1108.92 1382.02 1083.02 1391.07 1054.79 1394.91C1050.23 1348.15 1041.63 1263.5 1034.16 1210.9C1030.15 1182.97 1034.26 1154.42 1046.64 1129.4C1049.02 1124.56 1051.72 1119.86 1054.73 1115.33C1072.66 1088.27 1095.82 1073.47 1119.98 1060.24C1138.61 1050.01 1158.55 1042.09 1177.84 1034.45C1186.3 1031.1 1194.29 1027.92 1201.79 1024.71C1210.74 1020.84 1217.48 1017.55 1223.01 1014.41C1229.34 1010.85 1237.18 1004.97 1244.72 999.165C1244.75 999.165 1244.79 999.131 1244.82 999.095L1251.39 994.049C1264.14 984.164 1278.62 972.999 1291.52 965.776C1305.17 958.171 1314.78 956.202 1320.1 959.935C1322.76 961.834 1324.04 964.36 1324.04 967.987C1324.21 986.617 1292.87 1021.49 1271.23 1037.32L1201.72 1088.06C1200.34 1089.06 1199.61 1090.65 1199.61 1092.24C1199.61 1093.31 1199.93 1094.39 1200.62 1095.29C1202.31 1097.6 1205.52 1098.12 1207.84 1096.43L1277.34 1045.69C1297.36 1031.07 1334.65 993.221 1334.41 967.887C1334.38 962.702 1332.75 958.21 1329.68 954.683C1333.93 947.39 1344.36 929.834 1357.01 910.511C1357.05 910.441 1357.08 910.338 1357.15 910.269C1406.93 834.54 1421.09 838.067 1422.55 838.724C1422.69 838.793 1423.1 838.966 1423.44 840.176C1430.53 863.126 1368.35 980.849 1321.93 1057.09Z" fill="#FACBAE"/>
<path d="M773.066 851.45C783.814 887.694 805.535 971.224 810.911 991.969C817.741 997.208 824.674 1002.34 830.092 1005.4C833.068 1007.09 836.462 1008.83 840.403 1010.7C827.154 965.519 805.185 892.195 800.369 882.083C791.693 863.909 781.36 854.759 773.066 851.45Z" fill="#FACBAE"/>
<path d="M1044.5 1396.09C1037.76 1396.67 1030.95 1396.98 1024 1396.98C983.796 1396.98 946.729 1386.56 917.175 1369.05C907.145 1363.11 901.289 1352.04 902.272 1340.42C906.334 1292.33 908.179 1230.12 894.806 1201.53C891.939 1195.42 887.755 1189.44 882.571 1183.53C865.737 1164.34 838.156 1145.96 809.365 1126.77C775.528 1104.24 740.551 1080.91 726.068 1057.09C679.651 980.849 617.471 863.129 624.555 840.179C624.9 838.969 625.315 838.796 625.454 838.727C626.906 838.07 641.041 834.51 690.846 910.238C690.879 910.341 690.916 910.444 690.985 910.514C703.635 929.834 714.074 947.393 718.324 954.686C715.248 958.21 713.624 962.705 713.59 967.89C713.348 993.224 750.642 1031.07 770.655 1045.69L840.161 1096.43C841.096 1097.09 842.131 1097.43 843.205 1097.43C844.796 1097.43 846.35 1096.67 847.388 1095.29C849.082 1093.01 848.562 1089.76 846.281 1088.07L776.775 1037.33C755.137 1021.5 723.79 986.623 723.926 967.993C723.96 964.363 725.239 961.84 727.901 959.941C733.225 956.208 742.832 958.177 756.484 965.782C769.376 973.005 783.856 984.203 796.645 994.055L802.211 998.342C802.834 999.276 803.696 999.966 804.734 1000.31C811.818 1005.74 819.078 1011.09 824.989 1014.41C830.518 1017.56 837.258 1020.84 846.211 1024.71C853.71 1027.93 861.696 1031.11 870.162 1034.46C889.449 1042.1 909.392 1050.01 928.02 1060.24C953.665 1074.31 981.902 1089.79 1001.6 1129.37C1008.2 1142.64 1013.87 1158.61 1018.13 1178.14C1018.3 1178.86 1018.44 1179.66 1018.61 1180.45C1026.7 1219.5 1038.79 1337.71 1044.5 1396.09Z" fill="#FACBAE"/>
<path d="M1368.08 775.83C1367.4 775.119 1365.47 773.534 1362.02 774.139C1358.37 774.784 1348.71 778.937 1337.94 803.581L1337.13 805.45C1332.29 816.933 1310.06 900.713 1296.82 951.728C1306.56 947.711 1314.56 946.81 1320.99 948.994C1325.41 941.435 1335.52 924.444 1347.75 905.747C1348.88 899.494 1355.41 863.722 1361.96 832.22C1367.04 807.897 1372.71 780.703 1368.08 775.83Z" fill="#FACBAE"/>
<path d="M1247.63 882.086C1242.82 892.195 1220.85 965.516 1207.6 1010.7C1211.54 1008.83 1214.93 1007.09 1217.91 1005.4C1223.33 1002.33 1230.27 997.201 1237.09 991.965C1242.59 970.721 1264.17 887.697 1274.93 851.44C1266.63 854.741 1256.32 863.894 1247.63 882.086Z" fill="#FACBAE"/>
<path d="M1321.38 803.305C1317.2 804.098 1302.56 809.056 1289.68 839.559C1289.02 841.123 1288.02 844.202 1287.32 846.383C1279.21 871.967 1259.51 946.97 1250.48 981.654C1261.48 973.202 1273.34 964.366 1284.52 957.884C1289.02 940.503 1318.78 825.771 1326.77 803.565C1325.23 803.048 1323.42 802.918 1321.38 803.305Z" fill="#FACBAE"/>
<circle cx="1008" cy="928" r="60" fill="white"/>
<g filter="url(#filter0_d_111_5)">
<path fill-rule="evenodd" clip-rule="evenodd" d="M1026 740C940.589 831.608 924.4 893.476 926.118 929.553C928.88 987.559 979.817 1013.99 1025.98 1014H1026C1072.16 1014 1123.1 987.591 1125.88 929.592C1127.61 893.508 1111.43 831.628 1026 740ZM1026 964.443C1031.48 964.443 1035.93 968.901 1035.93 974.391C1035.93 979.887 1031.48 984.338 1026 984.338C1005.42 984.338 986.265 977.928 973.441 966.745C957.554 952.886 952.244 932.166 957.656 905.144C958.734 899.76 963.966 896.273 969.345 897.349C974.723 898.431 978.206 903.678 977.127 909.062C973.166 928.831 976.225 942.797 986.479 951.736C995.607 959.696 1010.38 964.443 1026 964.443Z" fill="url(#paint7_linear_111_5)"/>
</g>
<path d="M811.991 707.054C814.332 715.96 821.25 715.242 831.149 705.99L824.895 704.39C821.367 709.003 816.848 711.115 811.991 707.054Z" fill="url(#paint8_linear_111_5)"/>
<path d="M801.516 701.336C804.521 707.924 808.704 711.044 818.85 702.258L813.442 700.069C809.914 704.682 805.946 704.922 801.516 701.336Z" fill="url(#paint9_linear_111_5)"/>
<path d="M728.067 731.292C735.13 738.187 787.921 697.394 784.266 697.069C771.56 695.941 766.143 695.653 766.143 695.653C766.143 695.653 720.807 724.206 728.067 731.292Z" fill="url(#paint10_linear_111_5)"/>
<path d="M766.922 696.328L779.059 697.969C779.059 697.969 746.866 725.905 740.864 722.013C737.975 720.14 766.922 696.328 766.922 696.328Z" fill="url(#paint11_linear_111_5)"/>
<path d="M734.914 718.076C747.827 711.225 765.383 696.337 765.383 696.337L752.761 693.583C752.761 693.583 713.138 708.588 699.458 720.898C695.667 724.31 691.953 727.652 693.333 732.433C694.713 737.215 719.739 726.125 734.914 718.076Z" fill="url(#paint12_linear_111_5)"/>
<path d="M753.284 693.973L764.632 696.84C764.632 696.84 713.259 727.064 712.858 722.607C712.51 718.733 753.284 693.973 753.284 693.973Z" fill="url(#paint13_linear_111_5)"/>
<path d="M783.603 678.564L803.357 695.549C781.684 699 770.137 699.367 751.935 693.811C765.344 684.084 772.708 679.721 783.603 678.564Z" fill="url(#paint14_linear_111_5)"/>
<path d="M669.203 729.883C683.118 735.559 776.942 679.568 776.942 679.568C762.154 682.354 753.764 684.132 738.068 688.909C738.669 689.662 661.94 726.92 669.203 729.883Z" fill="url(#paint15_linear_111_5)"/>
<path d="M753.499 684.659L763.952 682.137C763.372 683.911 697.091 722.326 694.8 716.486C693.679 713.628 753.499 684.659 753.499 684.659Z" fill="url(#paint16_linear_111_5)"/>
<path d="M880.894 514.612C886.748 539.459 890.316 561.85 894.608 593.475L882.004 611.185L859.224 558.548C859.906 552.198 861.241 549.525 865.986 546.956C865.559 537.062 866.877 533.013 873.573 529.976C873.395 521.296 875.387 517.174 880.894 514.612Z" fill="url(#paint17_linear_111_5)"/>
<path d="M887.454 624.693L898.515 620.935L894.532 593.2C889.356 599.53 886.424 602.518 881.994 611.365L887.454 624.693Z" fill="url(#paint18_linear_111_5)"/>
<path d="M887.399 603.232L885.774 604.866L864.114 548.124C864.302 547.876 865.248 547.374 865.986 546.956L887.399 603.232Z" fill="url(#paint19_linear_111_5)"/>
<path d="M890.172 598.672L891.435 597.019L873.573 529.976C872.77 530.349 870.684 531.543 870.399 531.799L890.172 598.672Z" fill="url(#paint20_linear_111_5)"/>
<path d="M968.02 642.195C974.282 644.083 976.933 643.897 981.61 643.732C977.347 639.333 975.163 636.523 971.693 630.801C966.649 620.914 963.272 616.652 956.538 610.711C943.874 599.711 929.668 599.957 915.768 607.819C904.623 614.123 900.119 621.701 887.14 623.771L889.975 631.889C902.15 629.391 908.762 627.546 921.126 630.014C928.394 628.494 931.596 627.586 938.108 627.296L955.709 631.762C959.815 638.413 964.486 643.207 968.02 642.195Z" fill="url(#paint21_linear_111_5)"/>
<path d="M925.703 670.637L901.397 629.871C901.397 629.871 886.794 628.713 889.481 632.677C897.887 645.075 890.194 658.881 890.194 658.881C877.384 689.482 791.414 674.634 783.318 678.821C816.071 717.321 886.245 722.319 925.703 670.637Z" fill="url(#paint22_linear_111_5)"/>
<path d="M967.754 642.09L974.552 650.6C956.488 650.513 945.837 655.91 925.2 671.607C921.303 671.671 917.985 667.602 918.6 659.305C911.396 658.56 908.629 654.338 909.653 646.878C903.905 645.168 902.199 643.384 902.864 638.188C898.12 634.675 897.891 631.133 901.663 628.255C907.976 623.438 913.251 628.073 921.972 629.425C928.22 627.61 931.809 626.768 939.277 627.448C946.754 636.378 950.637 637.889 956.993 633.189C956.993 633.189 961.359 639.936 964.617 641.471C965.873 642.062 967.754 642.09 967.754 642.09Z" fill="url(#paint23_linear_111_5)"/>
<path d="M892.435 654.111C898.683 638.508 880.397 609.017 867.898 577.931C852.52 598.481 855.514 626.073 861.994 647.603L820.147 637.592C781.645 650.212 753.654 666.107 735.654 690.048C754.461 683.957 765.455 681.809 785.238 678.47C840.537 682.408 883.589 683.065 892.435 654.111Z" fill="url(#paint24_linear_111_5)"/>
<path d="M938.925 627.248C938.758 628.758 943.652 633.147 944.989 633.987C945.869 635.247 947.78 635.604 949.262 635.975C950.743 636.346 952.297 636.162 953.629 635.457C954.96 634.752 956.299 634.329 956.993 633.189L954.682 630.621C953.922 631.305 953.239 632.723 952.354 633.192C951.469 633.661 950.527 633.945 949.542 633.698C948.557 633.451 947.474 633.115 946.889 632.278C946.303 631.44 946.218 630.366 946.329 629.362C945.155 628.421 939.242 626.244 938.925 627.248Z" fill="url(#paint25_linear_111_5)"/>
<path d="M945.426 629.314L951.011 622.912C948.794 621.027 947.039 620.279 943.95 621.178C941.184 622.669 938.797 624.326 937.205 627.248L945.426 629.314Z" fill="url(#paint26_linear_111_5)"/>
<path d="M953.771 632.474C951.41 634.599 947.695 634.32 945.474 631.852C943.253 629.384 943.367 625.661 945.728 623.536C948.089 621.411 951.803 621.69 954.024 624.158C956.245 626.626 956.132 630.35 953.771 632.474Z" fill="url(#paint27_linear_111_5)"/>
<path d="M952.458 629.869C951.462 630.766 949.964 630.727 949.113 629.782C948.263 628.837 948.381 627.343 949.378 626.446C950.375 625.549 951.873 625.588 952.723 626.534C953.574 627.479 953.455 628.972 952.458 629.869Z" fill="url(#paint28_linear_111_5)"/>
<path d="M981.525 643.637C1010.19 659.331 1027.59 668.268 1044.37 685.005C1017.9 666.894 1000.43 657.561 964.694 641.747L981.525 643.637Z" fill="url(#paint29_linear_111_5)"/>
<path d="M964.694 641.747C1000.09 656.966 1018.2 666.452 1044.37 685.005C1040.39 686.514 1004.17 663.674 974.105 650.486L964.694 641.747Z" fill="url(#paint30_linear_111_5)"/>
<path d="M836.481 655.934L862.631 647.547C854.353 621.8 856.453 606.134 867.898 577.931C847.146 531.475 833.333 497.969 821.487 482.028C816.402 486.157 814.966 490.158 817.646 503.553C811.217 510.103 809.1 514.684 814.357 528.367C808.456 537.746 807.244 543.191 811.506 553.476C807.63 567.614 807.288 574.017 813.008 580.174C809.996 591.254 809.907 597.084 817.655 605.59C815.734 614.422 815.624 619.173 822.006 626.283C819.82 636.302 821.973 639.055 826.925 643.023C825.815 649.312 828.015 652.111 836.481 655.934Z" fill="url(#paint31_linear_111_5)"/>
<path d="M860.851 641.748L861.308 643.402L826.717 645.275C826.719 644.411 826.765 643.918 826.925 643.023L860.851 641.748Z" fill="url(#paint32_linear_111_5)"/>
<path d="M859.195 635.322L858.91 633.859L822.006 626.283C821.663 627.223 821.561 628.006 821.494 629.153L859.195 635.322Z" fill="url(#paint33_linear_111_5)"/>
<path d="M857.747 624.924L857.69 626.008L817.02 609.087C817.172 607.636 817.361 606.915 817.655 605.59L857.747 624.924Z" fill="url(#paint34_linear_111_5)"/>
<path d="M857.629 615.049L857.544 616.674L812.202 583.481C812.454 582.137 812.664 581.44 813.008 580.174L857.629 615.049Z" fill="url(#paint35_linear_111_5)"/>
<path d="M859.174 604.538L858.833 605.878L810.481 557.495C810.828 555.884 811.073 555.02 811.506 553.476L859.174 604.538Z" fill="url(#paint36_linear_111_5)"/>
<path d="M812.268 531.968L861.357 595.691L861.784 594.446L814.357 528.367C813.513 529.728 813.029 530.476 812.268 531.968Z" fill="url(#paint37_linear_111_5)"/>
<path d="M865.078 585.115L864.452 586.711L812.991 509.462C814.51 506.741 815.392 505.591 817.646 503.553L865.078 585.115Z" fill="url(#paint38_linear_111_5)"/>
<path d="M862.241 646.349L862.631 647.547L836.481 655.934L834.713 655.116L862.241 646.349Z" fill="url(#paint39_linear_111_5)"/>
<path d="M643.1 445L674.3 375H690.3L721.6 445H704.6L679 383.2H685.4L659.7 445H643.1ZM658.7 430L663 417.7H699L703.4 430H658.7ZM727.763 445V370.8H743.363V445H727.763ZM757.841 445V391.2H773.441V445H757.841ZM765.641 383.7C762.774 383.7 760.441 382.867 758.641 381.2C756.841 379.533 755.941 377.467 755.941 375C755.941 372.533 756.841 370.467 758.641 368.8C760.441 367.133 762.774 366.3 765.641 366.3C768.507 366.3 770.841 367.1 772.641 368.7C774.441 370.233 775.341 372.233 775.341 374.7C775.341 377.3 774.441 379.467 772.641 381.2C770.907 382.867 768.574 383.7 765.641 383.7ZM820.919 445V434.5L819.919 432.2V413.4C819.919 410.067 818.885 407.467 816.819 405.6C814.819 403.733 811.719 402.8 807.519 402.8C804.652 402.8 801.819 403.267 799.019 404.2C796.285 405.067 793.952 406.267 792.019 407.8L786.419 396.9C789.352 394.833 792.885 393.233 797.019 392.1C801.152 390.967 805.352 390.4 809.619 390.4C817.819 390.4 824.185 392.333 828.719 396.2C833.252 400.067 835.519 406.1 835.519 414.3V445H820.919ZM804.519 445.8C800.319 445.8 796.719 445.1 793.719 443.7C790.719 442.233 788.419 440.267 786.819 437.8C785.219 435.333 784.419 432.567 784.419 429.5C784.419 426.3 785.185 423.5 786.719 421.1C788.319 418.7 790.819 416.833 794.219 415.5C797.619 414.1 802.052 413.4 807.519 413.4H821.819V422.5H809.219C805.552 422.5 803.019 423.1 801.619 424.3C800.285 425.5 799.619 427 799.619 428.8C799.619 430.8 800.385 432.4 801.919 433.6C803.519 434.733 805.685 435.3 808.419 435.3C811.019 435.3 813.352 434.7 815.419 433.5C817.485 432.233 818.985 430.4 819.919 428L822.319 435.2C821.185 438.667 819.119 441.3 816.119 443.1C813.119 444.9 809.252 445.8 804.519 445.8ZM873.128 445.8C868.061 445.8 863.495 444.667 859.428 442.4C855.361 440.067 852.128 436.833 849.728 432.7C847.395 428.567 846.228 423.7 846.228 418.1C846.228 412.433 847.395 407.533 849.728 403.4C852.128 399.267 855.361 396.067 859.428 393.8C863.495 391.533 868.061 390.4 873.128 390.4C877.661 390.4 881.628 391.4 885.028 393.4C888.428 395.4 891.061 398.433 892.928 402.5C894.795 406.567 895.728 411.767 895.728 418.1C895.728 424.367 894.828 429.567 893.028 433.7C891.228 437.767 888.628 440.8 885.228 442.8C881.895 444.8 877.861 445.8 873.128 445.8ZM875.828 433C878.361 433 880.661 432.4 882.728 431.2C884.795 430 886.428 428.3 887.628 426.1C888.895 423.833 889.528 421.167 889.528 418.1C889.528 414.967 888.895 412.3 887.628 410.1C886.428 407.9 884.795 406.2 882.728 405C880.661 403.8 878.361 403.2 875.828 403.2C873.228 403.2 870.895 403.8 868.828 405C866.761 406.2 865.095 407.9 863.828 410.1C862.628 412.3 862.028 414.967 862.028 418.1C862.028 421.167 862.628 423.833 863.828 426.1C865.095 428.3 866.761 430 868.828 431.2C870.895 432.4 873.228 433 875.828 433ZM889.928 445V434L890.228 418L889.228 402.1V370.8H904.828V445H889.928ZM944.866 445.8C939.133 445.8 934.033 444.6 929.566 442.2C925.166 439.8 921.666 436.533 919.066 432.4C916.533 428.2 915.266 423.433 915.266 418.1C915.266 412.7 916.533 407.933 919.066 403.8C921.666 399.6 925.166 396.333 929.566 394C934.033 391.6 939.133 390.4 944.866 390.4C950.533 390.4 955.6 391.6 960.066 394C964.533 396.333 968.033 399.567 970.566 403.7C973.1 407.833 974.366 412.633 974.366 418.1C974.366 423.433 973.1 428.2 970.566 432.4C968.033 436.533 964.533 439.8 960.066 442.2C955.6 444.6 950.533 445.8 944.866 445.8ZM944.866 433C947.466 433 949.8 432.4 951.866 431.2C953.933 430 955.566 428.3 956.766 426.1C957.966 423.833 958.566 421.167 958.566 418.1C958.566 414.967 957.966 412.3 956.766 410.1C955.566 407.9 953.933 406.2 951.866 405C949.8 403.8 947.466 403.2 944.866 403.2C942.266 403.2 939.933 403.8 937.866 405C935.8 406.2 934.133 407.9 932.866 410.1C931.666 412.3 931.066 414.967 931.066 418.1C931.066 421.167 931.666 423.833 932.866 426.1C934.133 428.3 935.8 430 937.866 431.2C939.933 432.4 942.266 433 944.866 433ZM1031.21 445.8C1026.61 445.8 1022.18 445.267 1017.91 444.2C1013.71 443.067 1010.38 441.667 1007.91 440L1013.11 428.8C1015.58 430.333 1018.48 431.6 1021.81 432.6C1025.21 433.533 1028.55 434 1031.81 434C1035.41 434 1037.95 433.567 1039.41 432.7C1040.95 431.833 1041.71 430.633 1041.71 429.1C1041.71 427.833 1041.11 426.9 1039.91 426.3C1038.78 425.633 1037.25 425.133 1035.31 424.8C1033.38 424.467 1031.25 424.133 1028.91 423.8C1026.65 423.467 1024.35 423.033 1022.01 422.5C1019.68 421.9 1017.55 421.033 1015.61 419.9C1013.68 418.767 1012.11 417.233 1010.91 415.3C1009.78 413.367 1009.21 410.867 1009.21 407.8C1009.21 404.4 1010.18 401.4 1012.11 398.8C1014.11 396.2 1016.98 394.167 1020.71 392.7C1024.45 391.167 1028.91 390.4 1034.11 390.4C1037.78 390.4 1041.51 390.8 1045.31 391.6C1049.11 392.4 1052.28 393.567 1054.81 395.1L1049.61 406.2C1047.01 404.667 1044.38 403.633 1041.71 403.1C1039.11 402.5 1036.58 402.2 1034.11 402.2C1030.65 402.2 1028.11 402.667 1026.51 403.6C1024.91 404.533 1024.11 405.733 1024.11 407.2C1024.11 408.533 1024.68 409.533 1025.81 410.2C1027.01 410.867 1028.58 411.4 1030.51 411.8C1032.45 412.2 1034.55 412.567 1036.81 412.9C1039.15 413.167 1041.48 413.6 1043.81 414.2C1046.15 414.8 1048.25 415.667 1050.11 416.8C1052.05 417.867 1053.61 419.367 1054.81 421.3C1056.01 423.167 1056.61 425.633 1056.61 428.7C1056.61 432.033 1055.61 435 1053.61 437.6C1051.61 440.133 1048.71 442.133 1044.91 443.6C1041.18 445.067 1036.61 445.8 1031.21 445.8ZM1092.94 445.8C1086.81 445.8 1081.41 444.6 1076.74 442.2C1072.14 439.8 1068.57 436.533 1066.04 432.4C1063.51 428.2 1062.24 423.433 1062.24 418.1C1062.24 412.7 1063.47 407.933 1065.94 403.8C1068.47 399.6 1071.91 396.333 1076.24 394C1080.57 391.6 1085.47 390.4 1090.94 390.4C1096.21 390.4 1100.94 391.533 1105.14 393.8C1109.41 396 1112.77 399.2 1115.24 403.4C1117.71 407.533 1118.94 412.5 1118.94 418.3C1118.94 418.9 1118.91 419.6 1118.84 420.4C1118.77 421.133 1118.71 421.833 1118.64 422.5H1074.94V413.4H1110.44L1104.44 416.1C1104.44 413.3 1103.87 410.867 1102.74 408.8C1101.61 406.733 1100.04 405.133 1098.04 404C1096.04 402.8 1093.71 402.2 1091.04 402.2C1088.37 402.2 1086.01 402.8 1083.94 404C1081.94 405.133 1080.37 406.767 1079.24 408.9C1078.11 410.967 1077.54 413.433 1077.54 416.3V418.7C1077.54 421.633 1078.17 424.233 1079.44 426.5C1080.77 428.7 1082.61 430.4 1084.94 431.6C1087.34 432.733 1090.14 433.3 1093.34 433.3C1096.21 433.3 1098.71 432.867 1100.84 432C1103.04 431.133 1105.04 429.833 1106.84 428.1L1115.14 437.1C1112.67 439.9 1109.57 442.067 1105.84 443.6C1102.11 445.067 1097.81 445.8 1092.94 445.8ZM1129.33 445V391.2H1144.23V405.9L1141.43 401.6C1143.29 397.933 1145.93 395.167 1149.33 393.3C1152.79 391.367 1156.73 390.4 1161.13 390.4C1166.06 390.4 1170.36 391.667 1174.03 394.2C1177.76 396.667 1180.23 400.467 1181.43 405.6L1175.93 404.1C1177.73 399.9 1180.59 396.567 1184.53 394.1C1188.53 391.633 1193.09 390.4 1198.23 390.4C1202.49 390.4 1206.26 391.267 1209.53 393C1212.86 394.667 1215.46 397.267 1217.33 400.8C1219.26 404.267 1220.23 408.733 1220.23 414.2V445H1204.63V416.6C1204.63 412.267 1203.73 409.067 1201.93 407C1200.13 404.933 1197.59 403.9 1194.33 403.9C1192.06 403.9 1190.03 404.433 1188.23 405.5C1186.43 406.5 1185.03 408.033 1184.03 410.1C1183.03 412.167 1182.53 414.8 1182.53 418V445H1166.93V416.6C1166.93 412.267 1166.03 409.067 1164.23 407C1162.49 404.933 1159.99 403.9 1156.73 403.9C1154.46 403.9 1152.43 404.433 1150.63 405.5C1148.83 406.5 1147.43 408.033 1146.43 410.1C1145.43 412.167 1144.93 414.8 1144.93 418V445H1129.33ZM1234.21 445V391.2H1249.81V445H1234.21ZM1242.01 383.7C1239.14 383.7 1236.81 382.867 1235.01 381.2C1233.21 379.533 1232.31 377.467 1232.31 375C1232.31 372.533 1233.21 370.467 1235.01 368.8C1236.81 367.133 1239.14 366.3 1242.01 366.3C1244.87 366.3 1247.21 367.1 1249.01 368.7C1250.81 370.233 1251.71 372.233 1251.71 374.7C1251.71 377.3 1250.81 379.467 1249.01 381.2C1247.27 382.867 1244.94 383.7 1242.01 383.7ZM1264.29 445V370.8H1279.89V445H1264.29ZM1294.36 445V370.8H1309.96V445H1294.36ZM1357.44 445V434.5L1356.44 432.2V413.4C1356.44 410.067 1355.41 407.467 1353.34 405.6C1351.34 403.733 1348.24 402.8 1344.04 402.8C1341.18 402.8 1338.34 403.267 1335.54 404.2C1332.81 405.067 1330.48 406.267 1328.54 407.8L1322.94 396.9C1325.88 394.833 1329.41 393.233 1333.54 392.1C1337.68 390.967 1341.88 390.4 1346.14 390.4C1354.34 390.4 1360.71 392.333 1365.24 396.2C1369.78 400.067 1372.04 406.1 1372.04 414.3V445H1357.44ZM1341.04 445.8C1336.84 445.8 1333.24 445.1 1330.24 443.7C1327.24 442.233 1324.94 440.267 1323.34 437.8C1321.74 435.333 1320.94 432.567 1320.94 429.5C1320.94 426.3 1321.71 423.5 1323.24 421.1C1324.84 418.7 1327.34 416.833 1330.74 415.5C1334.14 414.1 1338.58 413.4 1344.04 413.4H1358.34V422.5H1345.74C1342.08 422.5 1339.54 423.1 1338.14 424.3C1336.81 425.5 1336.14 427 1336.14 428.8C1336.14 430.8 1336.91 432.4 1338.44 433.6C1340.04 434.733 1342.21 435.3 1344.94 435.3C1347.54 435.3 1349.88 434.7 1351.94 433.5C1354.01 432.233 1355.51 430.4 1356.44 428L1358.84 435.2C1357.71 438.667 1355.64 441.3 1352.64 443.1C1349.64 444.9 1345.78 445.8 1341.04 445.8Z" fill="white"/>
<defs>
<filter id="filter0_d_111_5" x="906" y="730" width="260" height="334" filterUnits="userSpaceOnUse" color-interpolation-filters="sRGB">
<feFlood flood-opacity="0" result="BackgroundImageFix"/>
<feColorMatrix in="SourceAlpha" type="matrix" values="0 0 0 0 0 0 0 0 0 0 0 0 0 0 0 0 0 0 127 0" result="hardAlpha"/>
<feOffset dx="10" dy="20"/>
<feGaussianBlur stdDeviation="15"/>
<feComposite in2="hardAlpha" operator="out"/>
<feColorMatrix type="matrix" values="0 0 0 0 1 0 0 0 0 1 0 0 0 0 1 0 0 0 0.8 0"/>
<feBlend mode="normal" in2="BackgroundImageFix" result="effect1_dropShadow_111_5"/>
<feBlend mode="normal" in="SourceGraphic" in2="effect1_dropShadow_111_5" result="shape"/>
</filter>
<linearGradient id="paint0_linear_111_5" x1="1321.95" y1="1397.46" x2="1321.95" y2="1924" gradientUnits="userSpaceOnUse">
<stop stop-color="#009975"/>
<stop offset="1" stop-color="#00FFC3"/>
</linearGradient>
<linearGradient id="paint1_linear_111_5" x1="731.427" y1="1404.33" x2="731.427" y2="1924" gradientUnits="userSpaceOnUse">
<stop stop-color="#009975"/>
<stop offset="1" stop-color="#00FFC3"/>
</linearGradient>
<linearGradient id="paint2_linear_111_5" x1="1025.86" y1="1533.7" x2="1025.86" y2="1539.94" gradientUnits="userSpaceOnUse">
<stop stop-color="#009975"/>
<stop offset="1" stop-color="#00FFC3"/>
</linearGradient>
<linearGradient id="paint3_linear_111_5" x1="1236.66" y1="1142.41" x2="1236.66" y2="1554.24" gradientUnits="userSpaceOnUse">
<stop stop-color="#009975"/>
<stop offset="1" stop-color="#00FFC3"/>
</linearGradient>
<linearGradient id="paint4_linear_111_5" x1="814.869" y1="1142.41" x2="814.869" y2="1554.24" gradientUnits="userSpaceOnUse">
<stop stop-color="#009975"/>
<stop offset="1" stop-color="#00FFC3"/>
</linearGradient>
<linearGradient id="paint5_linear_111_5" x1="945.192" y1="1372.41" x2="1114.58" y2="1456.52" gradientUnits="userSpaceOnUse">
<stop stop-color="#11268F"/>
<stop offset="1" stop-color="#01136D"/>
</linearGradient>
<linearGradient id="paint6_linear_111_5" x1="468.375" y1="574.876" x2="1533.73" y2="1206.26" gradientUnits="userSpaceOnUse">
<stop stop-color="#11268F"/>
<stop offset="1" stop-color="#01136D"/>
</linearGradient>
<linearGradient id="paint7_linear_111_5" x1="1045.38" y1="801.994" x2="1036.07" y2="984.266" gradientUnits="userSpaceOnUse">
<stop stop-color="#00B4AD"/>
<stop offset="1" stop-color="#02F1FF"/>
</linearGradient>
<linearGradient id="paint8_linear_111_5" x1="944.03" y1="573.502" x2="714.336" y2="780.194" gradientUnits="userSpaceOnUse">
<stop stop-color="#009975"/>
<stop offset="1" stop-color="#00FFC3"/>
</linearGradient>
<linearGradient id="paint9_linear_111_5" x1="944.03" y1="573.502" x2="714.336" y2="780.194" gradientUnits="userSpaceOnUse">
<stop stop-color="#009975"/>
<stop offset="1" stop-color="#00FFC3"/>
</linearGradient>
<linearGradient id="paint10_linear_111_5" x1="944.03" y1="573.502" x2="714.336" y2="780.194" gradientUnits="userSpaceOnUse">
<stop stop-color="#009975"/>
<stop offset="1" stop-color="#00FFC3"/>
</linearGradient>
<linearGradient id="paint11_linear_111_5" x1="944.03" y1="573.502" x2="714.336" y2="780.194" gradientUnits="userSpaceOnUse">
<stop stop-color="#009975"/>
<stop offset="1" stop-color="#00FFC3"/>
</linearGradient>
<linearGradient id="paint12_linear_111_5" x1="944.03" y1="573.502" x2="714.336" y2="780.194" gradientUnits="userSpaceOnUse">
<stop stop-color="#009975"/>
<stop offset="1" stop-color="#00FFC3"/>
</linearGradient>
<linearGradient id="paint13_linear_111_5" x1="944.03" y1="573.502" x2="714.336" y2="780.194" gradientUnits="userSpaceOnUse">
<stop stop-color="#009975"/>
<stop offset="1" stop-color="#00FFC3"/>
</linearGradient>
<linearGradient id="paint14_linear_111_5" x1="944.03" y1="573.502" x2="714.336" y2="780.194" gradientUnits="userSpaceOnUse">
<stop stop-color="#009975"/>
<stop offset="1" stop-color="#00FFC3"/>
</linearGradient>
<linearGradient id="paint15_linear_111_5" x1="944.03" y1="573.502" x2="714.336" y2="780.194" gradientUnits="userSpaceOnUse">
<stop stop-color="#009975"/>
<stop offset="1" stop-color="#00FFC3"/>
</linearGradient>
<linearGradient id="paint16_linear_111_5" x1="944.03" y1="573.502" x2="714.336" y2="780.194" gradientUnits="userSpaceOnUse">
<stop stop-color="#009975"/>
<stop offset="1" stop-color="#00FFC3"/>
</linearGradient>
<linearGradient id="paint17_linear_111_5" x1="944.03" y1="573.502" x2="714.336" y2="780.194" gradientUnits="userSpaceOnUse">
<stop stop-color="#009975"/>
<stop offset="1" stop-color="#00FFC3"/>
</linearGradient>
<linearGradient id="paint18_linear_111_5" x1="944.03" y1="573.502" x2="714.336" y2="780.194" gradientUnits="userSpaceOnUse">
<stop stop-color="#009975"/>
<stop offset="1" stop-color="#00FFC3"/>
</linearGradient>
<linearGradient id="paint19_linear_111_5" x1="944.03" y1="573.502" x2="714.336" y2="780.194" gradientUnits="userSpaceOnUse">
<stop stop-color="#009975"/>
<stop offset="1" stop-color="#00FFC3"/>
</linearGradient>
<linearGradient id="paint20_linear_111_5" x1="944.03" y1="573.502" x2="714.336" y2="780.194" gradientUnits="userSpaceOnUse">
<stop stop-color="#009975"/>
<stop offset="1" stop-color="#00FFC3"/>
</linearGradient>
<linearGradient id="paint21_linear_111_5" x1="944.03" y1="573.502" x2="714.336" y2="780.194" gradientUnits="userSpaceOnUse">
<stop stop-color="#009975"/>
<stop offset="1" stop-color="#00FFC3"/>
</linearGradient>
<linearGradient id="paint22_linear_111_5" x1="944.03" y1="573.502" x2="714.336" y2="780.194" gradientUnits="userSpaceOnUse">
<stop stop-color="#009975"/>
<stop offset="1" stop-color="#00FFC3"/>
</linearGradient>
<linearGradient id="paint23_linear_111_5" x1="944.03" y1="573.502" x2="714.336" y2="780.194" gradientUnits="userSpaceOnUse">
<stop stop-color="#009975"/>
<stop offset="1" stop-color="#00FFC3"/>
</linearGradient>
<linearGradient id="paint24_linear_111_5" x1="944.03" y1="573.502" x2="714.336" y2="780.194" gradientUnits="userSpaceOnUse">
<stop stop-color="#009975"/>
<stop offset="1" stop-color="#00FFC3"/>
</linearGradient>
<linearGradient id="paint25_linear_111_5" x1="944.03" y1="573.502" x2="714.336" y2="780.194" gradientUnits="userSpaceOnUse">
<stop stop-color="#009975"/>
<stop offset="1" stop-color="#00FFC3"/>
</linearGradient>
<linearGradient id="paint26_linear_111_5" x1="944.03" y1="573.502" x2="714.336" y2="780.194" gradientUnits="userSpaceOnUse">
<stop stop-color="#009975"/>
<stop offset="1" stop-color="#00FFC3"/>
</linearGradient>
<linearGradient id="paint27_linear_111_5" x1="944.03" y1="573.502" x2="714.336" y2="780.194" gradientUnits="userSpaceOnUse">
<stop stop-color="#009975"/>
<stop offset="1" stop-color="#00FFC3"/>
</linearGradient>
<linearGradient id="paint28_linear_111_5" x1="944.03" y1="573.502" x2="714.336" y2="780.194" gradientUnits="userSpaceOnUse">
<stop stop-color="#009975"/>
<stop offset="1" stop-color="#00FFC3"/>
</linearGradient>
<linearGradient id="paint29_linear_111_5" x1="944.03" y1="573.502" x2="714.336" y2="780.194" gradientUnits="userSpaceOnUse">
<stop stop-color="#009975"/>
<stop offset="1" stop-color="#00FFC3"/>
</linearGradient>
<linearGradient id="paint30_linear_111_5" x1="944.03" y1="573.502" x2="714.336" y2="780.194" gradientUnits="userSpaceOnUse">
<stop stop-color="#009975"/>
<stop offset="1" stop-color="#00FFC3"/>
</linearGradient>
<linearGradient id="paint31_linear_111_5" x1="944.03" y1="573.502" x2="714.336" y2="780.194" gradientUnits="userSpaceOnUse">
<stop stop-color="#009975"/>
<stop offset="1" stop-color="#00FFC3"/>
</linearGradient>
<linearGradient id="paint32_linear_111_5" x1="944.03" y1="573.502" x2="714.336" y2="780.194" gradientUnits="userSpaceOnUse">
<stop stop-color="#009975"/>
<stop offset="1" stop-color="#00FFC3"/>
</linearGradient>
<linearGradient id="paint33_linear_111_5" x1="944.03" y1="573.502" x2="714.336" y2="780.194" gradientUnits="userSpaceOnUse">
<stop stop-color="#009975"/>
<stop offset="1" stop-color="#00FFC3"/>
</linearGradient>
<linearGradient id="paint34_linear_111_5" x1="944.03" y1="573.502" x2="714.336" y2="780.194" gradientUnits="userSpaceOnUse">
<stop stop-color="#009975"/>
<stop offset="1" stop-color="#00FFC3"/>
</linearGradient>
<linearGradient id="paint35_linear_111_5" x1="944.03" y1="573.502" x2="714.336" y2="780.194" gradientUnits="userSpaceOnUse">
<stop stop-color="#009975"/>
<stop offset="1" stop-color="#00FFC3"/>
</linearGradient>
<linearGradient id="paint36_linear_111_5" x1="944.03" y1="573.502" x2="714.336" y2="780.194" gradientUnits="userSpaceOnUse">
<stop stop-color="#009975"/>
<stop offset="1" stop-color="#00FFC3"/>
</linearGradient>
<linearGradient id="paint37_linear_111_5" x1="944.03" y1="573.502" x2="714.336" y2="780.194" gradientUnits="userSpaceOnUse">
<stop stop-color="#009975"/>
<stop offset="1" stop-color="#00FFC3"/>
</linearGradient>
<linearGradient id="paint38_linear_111_5" x1="944.03" y1="573.502" x2="714.336" y2="780.194" gradientUnits="userSpaceOnUse">
<stop stop-color="#009975"/>
<stop offset="1" stop-color="#00FFC3"/>
</linearGradient>
<linearGradient id="paint39_linear_111_5" x1="944.03" y1="573.502" x2="714.336" y2="780.194" gradientUnits="userSpaceOnUse">
<stop stop-color="#009975"/>
<stop offset="1" stop-color="#00FFC3"/>
</linearGradient>
</defs>
</svg>
