<svg width="1080" height="1080" viewBox="0 0 1080 1080" fill="none" xmlns="http://www.w3.org/2000/svg">
<path d="M573.134 66.1571C574.098 52.3836 586.057 41.9343 599.765 43.5842C708.942 56.7249 810.775 105.515 889.427 182.367C899.302 192.016 898.652 207.884 888.522 217.265V217.265C878.391 226.646 862.619 225.981 852.69 216.387C782.752 148.805 692.764 105.69 596.271 93.5316C582.572 91.8055 572.171 79.9306 573.134 66.1571V66.1571Z" fill="#009975"/>
<path d="M914.305 247.561C925.185 239.06 940.953 240.956 948.899 252.247C1012.19 342.174 1044.07 450.497 1039.59 560.371C1039.02 574.167 1026.8 584.302 1013.05 583.05V583.05C999.295 581.799 989.236 569.633 989.722 555.835C993.147 458.639 964.974 362.916 909.443 283.072C901.56 271.737 903.425 256.061 914.305 247.561V247.561Z" fill="#003366"/>
<path d="M998.815 662.939C1012.15 666.513 1020.13 680.246 1015.89 693.388C982.16 798.052 914.836 888.704 824.389 951.246C813.032 959.099 797.58 955.434 790.304 943.699V943.699C783.028 931.964 786.691 916.609 798.003 908.693C877.689 852.935 937.182 772.828 967.528 680.427C971.837 667.31 985.478 659.366 998.815 662.939V662.939Z" fill="#00CFCF"/>
<path d="M717.938 980.412C723.11 993.214 716.942 1007.85 703.898 1012.37C600.009 1048.42 487.095 1049.21 382.713 1014.62C369.607 1010.27 363.235 995.727 368.228 982.854V982.854C373.221 969.981 387.689 963.665 400.819 967.936C493.305 998.019 593.085 997.323 685.143 965.951C698.212 961.497 712.766 967.611 717.938 980.412V980.412Z" fill="#FFD166"/>
<path d="M281.296 938.369C273.777 949.948 258.251 953.289 247.061 945.2C157.943 880.777 92.5325 788.735 61.0005 683.388C57.0414 670.16 65.3027 656.597 78.7112 653.303V653.303C92.1198 650.01 105.592 658.238 109.624 671.443C138.029 764.459 195.832 845.795 274.332 903.209C285.476 911.36 288.816 926.789 281.296 938.369V938.369Z" fill="#FF7C7C"/>
<path d="M68.5406 597.888C54.8364 599.571 42.2971 589.825 41.301 576.054C33.3683 466.375 61.8312 357.104 122.264 265.233C129.852 253.698 145.552 251.308 156.694 259.462V259.462C167.836 267.617 170.192 283.226 162.669 294.803C109.673 376.352 84.5207 472.913 90.9974 569.953C91.9169 583.729 82.2448 596.205 68.5406 597.888V597.888Z" fill="#335A8B"/>
<path d="M192.607 216.051C182.509 206.634 181.915 190.764 191.824 181.149C270.743 104.572 372.745 56.1382 481.968 43.3786C495.682 41.7766 507.604 52.2676 508.52 66.0443V66.0443C509.435 79.8211 498.992 91.6597 485.287 93.3379C388.753 105.16 298.615 147.96 228.441 215.297C218.479 224.857 202.705 225.467 192.607 216.051V216.051Z" fill="#E2A93B"/>
<path d="M636.716 351.794C636.69 352.466 636.927 353.607 637.234 354.328C637.546 355.049 637.884 355.642 637.985 355.642C638.09 355.642 637.982 355.263 637.745 354.797C637.509 354.332 637.189 353.194 637.039 352.263C636.799 350.818 636.754 350.75 636.716 351.794Z" fill="#335A8B"/>
<path d="M686.963 366.279C671.57 368.222 656.329 372.351 641.037 376.268C598.937 385.326 572.978 412.256 560.318 452.657C553.911 471.521 549.216 491.246 538.407 507.945C513.066 550.521 471.168 566.137 424.655 574.254C405.224 577.948 386.127 582.836 367.323 588.868C340.16 598.047 313.655 611.527 293.334 632.112C263.003 660.915 247.61 700.405 247.995 742.071C247.893 743.083 247.742 743.67 247.549 743.751C247.145 743.943 246.487 742.03 245.94 738.761C242.854 715.09 247.519 691.671 255.524 669.538C258.651 661.391 262.487 653.497 267.588 646.433C270.968 641.929 275.502 636.626 279.327 632.163C297.716 611.568 319.889 595.901 344.512 583.17C356.707 576.905 369.347 571.329 382.048 565.965C385.641 564.214 423.491 550.633 399.496 554.59C383.536 557.93 367.799 561.583 351.93 565.358C342.984 567.665 333.967 570.863 325.01 573.717C293.647 583.899 264.531 600.921 241.508 624.512C240.951 625.038 240.354 625.574 239.797 626.04C237.773 627.74 236.66 628.115 237.085 626.597C238.158 623.773 240.86 620.251 242.985 617.691C249.158 610.323 255.767 603.471 262.983 597.106C279.793 582.684 297.918 571.096 318.371 562.899C320.233 562.129 322.075 561.391 323.948 560.632C365.016 544.216 406.246 528.094 443.58 504.22C449.773 500.152 455.37 495.203 461.483 490.932C467.798 486.692 475.206 482.826 481.349 478.585C486.804 474.8 492.673 470.924 496.479 465.398C505.455 450.461 490.174 433.327 479.062 424.097C460.845 408.076 436.546 399.899 414.858 390.305C403.959 385.943 393.171 381.348 382.028 377.169C364.591 370.975 346.951 365.571 329.332 359.407C321.023 356.897 314.313 353.031 308.393 346.686C294.477 333.873 283.021 318.632 274.611 301.761C267.749 288.261 263.57 273.667 259.937 259.094C258.641 252.849 251.982 231.414 265.007 243.771C280.562 259.316 294.67 271.4 313.2 284.202C338.177 301.053 364.651 315.697 391.055 330.028C419.251 345.097 448.012 360.055 474.224 378.575C483.13 384.911 491.56 391.833 499.707 398.968C502.834 401.518 506.619 406.366 510.465 406.943C512.408 407.297 514.584 405.03 516.183 402.885C518.551 399.778 521.031 396.144 523.115 393.179C525.787 389.343 528.003 386.115 530.888 382.067C541.059 367.605 553.264 353.618 568.889 344.915C593.016 331.414 616.01 337.719 639.61 348.68C648.435 352.424 658.363 354.823 668.018 353.79C676.974 352.93 685.921 351.048 694.715 350.015C716.342 347.455 737.737 345.441 759.394 344.115C764.94 343.984 770.962 343.559 776.558 343.913C789.947 346.048 763.574 349.003 761.59 349.408C752.381 350.785 743.181 352.94 733.84 354.752C725.926 356.28 718.154 358.284 710.28 360.197C701.648 362.16 695.373 364.741 687.186 366.239L687.014 366.269L686.963 366.279ZM611.091 374.719C617.872 371.663 615.342 361.027 607.954 361.188C597.064 362.2 600.252 378.636 610.909 374.8L611.091 374.719Z" fill="#003366"/>
<path d="M408.954 577.777C408.479 578.708 406.637 579.467 405.473 580.287C403.054 581.714 400.413 583.272 398.014 584.821C387.357 591.217 376.751 597.279 367.562 605.649C349.771 622.024 335.997 643.519 331.453 667.404C327.84 692.138 333.376 718.279 346.684 739.552C369.019 775.682 407.497 799.192 446.187 814.777C454.678 817.995 463.675 820.941 472.378 823.42C477.155 824.776 482.235 826.102 487.032 827.488C489.249 827.984 517.422 833.661 515.085 835.533C522.56 840.872 489.811 839.092 485.183 837.669C476.996 837.313 467.424 834.416 458.842 832.685C435.919 828.131 414.642 818.744 393.743 808.3C381.933 802.228 370.072 795.467 359.78 787.219C347.736 777.534 336.381 767.12 327.283 754.52C320.493 745.3 315.493 734.967 310.949 724.473C306.79 714.585 304.594 703.017 303.177 692.138C302.236 684.588 300.424 686.136 297.975 691.531C284.717 720.9 279.505 751.302 289.099 782.736C290.101 786.116 291.204 789.486 292.409 792.816C292.884 794.395 295.556 800.841 293.805 800.285C290.455 797.421 286.64 789.82 284.383 785.165C281.55 779.194 278.756 773.081 276.672 766.877C274.455 760.117 272.472 753.245 271.551 746.262C270.771 739.694 270.863 733.014 271.197 726.385C272.33 708.138 276.803 689.921 284.525 673.314C290.83 659.054 300.626 646.343 311.192 635.119C331.25 614.565 355.772 598.17 382.287 587.219C389.837 584.001 397.478 580.854 405.301 578.283C407.598 577.564 408.985 577.342 408.964 577.726V577.757L408.954 577.777Z" fill="#335A8B"/>
<path d="M270.827 646.585C242.146 674.163 227.239 700.577 217.999 739.227C216.45 743.609 215.246 742.921 215.054 738.276C214.71 727.933 216.056 718.156 217.918 708.198C219.618 698.664 222.108 689.485 225.498 680.61C238.715 644.166 262.063 619.239 293.557 597.642C307.331 587.967 321.924 579.102 336.852 571.562C343.946 567.676 350.271 564.64 358.246 562.919C370.32 559.934 382.606 557.373 394.689 554.549C399.274 553.477 403.949 552.414 408.564 551.685C410.194 551.392 413.442 551.017 414.201 551.432C414.91 551.746 414.242 552.455 412.572 553.396C406.348 556.604 399.011 559.164 392.392 561.927C373.366 569.862 354.33 578.171 336.558 588.605C319.455 598.664 303.384 611.011 289.549 625.129C283.204 631.677 277.304 639.946 270.969 646.463L270.847 646.595L270.827 646.585Z" fill="#003366"/>
<path d="M426.436 571.916C426.193 572.705 424.746 573.343 423.835 573.981C418.633 577.25 411.731 580.104 406.934 582.229C401.398 585.174 395.346 585.164 389.183 586.965C381.603 589.495 374.225 592.562 366.918 595.699C339.867 606.872 314.981 623.621 294.639 644.682C286.634 653.183 279.742 662.099 273.639 672.017C267.931 682.006 263.61 692.602 260.27 703.623C256.344 716.709 254.35 730.625 254.148 744.318C254.117 746.777 254.35 752.06 252.549 751.867C246.142 748.679 249.563 721.122 250.545 714.199C253.844 693.412 261.272 673.252 272.708 655.653C278.963 645.876 286.765 637.557 294.882 629.228C308.645 615.393 325.516 604.484 343.257 596.377C358.174 589.151 374.023 584.142 390.033 579.901C398.332 577.391 405.962 575.711 414.474 573.849C417.277 573.222 420.333 572.574 423.177 572.038C425.171 571.673 426.324 571.552 426.426 571.886V571.916H426.436ZM250.818 742.911C250.565 742.698 250.555 742.739 250.352 742.972C250.555 743.204 250.565 743.245 250.818 743.032V742.911Z" fill="#003366"/>
<path d="M250.818 743.022C250.565 743.234 250.554 743.194 250.352 742.961C250.554 742.728 250.565 742.688 250.818 742.9V743.022Z" fill="#003366"/>
<path d="M499.586 454.37C500.79 457.346 499.424 462.031 495.74 462.305C494.09 462.467 491.803 461.91 489.971 461.363C482.462 459.086 474.73 457.103 466.978 455.817C453.083 453.662 437.872 454.208 423.886 455.656C411.114 456.971 398.251 458.429 385.358 458.692C345.19 458.631 311.469 441.689 287.504 409.395C284.802 405.357 274.52 392.393 287.11 399.852C311.955 414.395 340.332 420.528 368.487 425.041C388.728 428.361 409.312 431.134 429.553 434.059C444.804 436.599 492.157 441.558 499.535 454.249L499.586 454.37Z" fill="#003366"/>
<path d="M438.444 405.097C438.3 408.304 435.107 411.995 431.644 410.71C430.077 410.17 428.229 408.712 426.791 407.453C420.912 402.256 414.708 397.233 408.194 392.837C396.458 385.092 382.401 379.256 369.082 374.749C356.922 370.628 344.62 366.598 332.787 361.469C296.292 344.691 272.686 315.249 264.342 275.909C263.566 271.113 259.615 255.045 267.956 267.068C284.491 290.634 307.739 308.025 331.458 323.85C348.479 335.295 366.041 346.387 383.226 357.473C396.035 366.132 437.024 390.355 438.449 404.965L438.444 405.097Z" fill="#335A8B"/>
<path d="M499.009 461.171C503.138 465.907 475.958 483.38 471.657 485.971C466.294 489.159 460.481 492.359 454.571 494.515C441.435 497.718 429.705 496.835 417.369 496.248C414.555 496.471 394.76 493.911 404.87 489.903C410.031 487.97 423.046 483.932 425.232 481.655C425.192 481.402 424.119 481.452 422.388 481.685C418.441 482.272 413.908 483.244 409.92 483.659C399.496 484.954 389.052 483.922 378.881 481.422C367.941 478.75 357.892 474.277 348.601 468.286C345.727 466.191 339.169 462.881 339.139 459.198C339.958 455.635 353.58 457.518 357.021 457.062C365.29 456.961 373.71 456.404 381.978 456.344C389.7 456.657 396.774 457.092 404.516 455.827C416.933 454.35 429.027 453.611 441.435 452.882C449.936 452.235 458.973 452.882 467.272 453.763C474.842 454.411 481.967 456.121 489.243 458.024C492.148 458.853 497.39 459.521 498.938 461.11L499.009 461.181V461.171Z" fill="#335A8B"/>
<path d="M635.777 448.055C638.186 447.953 641.617 449.451 643.995 450.686C648.914 453.074 653.63 455.837 658.336 458.6C683.232 473.508 705.274 495.064 722.579 517.936C733.631 533.613 744.206 551.101 750.582 569.176C756.432 585.045 760.288 601.845 761.968 618.756C763.536 632.51 764.184 646.567 762.595 660.361C759.063 694.032 746.747 726.771 726.294 753.965C718.835 763.883 709.716 774.145 700.78 782.525C694.85 788.111 688.282 792.453 681.693 797.371C660.501 813.038 635.949 823.735 610.689 831.133C589.305 837.256 566.231 839.371 543.804 839.088C534.402 838.723 522.204 839.448 515.842 838.736C506.895 839.088 513.305 835.888 513.362 835.546C513.251 835.293 514.111 835.121 515.842 835.029C518.827 834.857 524.039 834.989 528.188 834.989C535.101 835.04 541.102 834.625 548.105 833.916C575.167 830.657 602.36 825.324 627.752 815.517C670.46 799.213 708.623 769.226 731.273 729.099C742.516 709.597 748.811 687.808 752.019 665.583C754.307 646.283 753.811 626.468 750.936 607.289C747.415 585.996 739.227 565.462 729.826 545.929C721.254 530.081 709.14 515.573 698.409 501.277C685.87 487.433 672.231 473.599 656.625 463.347C653.984 461.697 651.737 460.331 649.157 458.833C646.687 457.052 631.517 449.988 635.707 448.075L635.788 448.055H635.777Z" fill="#335A8B"/>
<path d="M317.92 353.679C339.932 362.989 363.178 369.598 385.615 377.846C404.823 385.416 423.333 393.411 442.278 401.852C455.212 407.459 468.197 413.885 479.046 423.074C488.002 430.229 496.665 438.66 500.804 449.59C502.353 453.851 501.958 455.257 497.9 452.717C492.981 449.479 487.638 447.799 482.112 446.321C467.883 442.556 453.178 440.249 438.585 438.245C415.014 434.885 391.889 431.96 368.461 428.155C341.683 423.874 314.783 417.974 291.03 404.524C289.988 403.947 288.804 403.299 287.812 402.823C285.029 401.487 283.855 401.69 282.246 400.89C280.04 399.757 276.528 395.962 274.16 393.948C267.541 388.28 261.358 382.117 255.974 375.215C243.182 358.901 233.719 340.046 226.352 320.716C221.382 308.238 228.406 311.274 235.288 316.577C240.469 320.362 245.6 323.945 251.207 327.274C259.516 332.001 268.229 336.008 277.064 339.692C290.322 344.742 304.683 348.962 317.738 353.608L317.91 353.679H317.92Z" fill="#003366"/>
<path d="M712.778 517.903C722.088 529.856 730.276 544.5 735.882 558.284C742.916 573.869 748.108 589.87 751.022 606.548C752.51 613.956 752.348 621.314 752.014 628.793C751.862 634.228 751.781 639.804 751.184 645.178C749.18 659.771 746.772 674.76 741.418 688.392C716.168 760.945 647.259 813.46 570.729 819.128C530.754 822.862 490.596 815.181 453.475 800.486C422.466 789.465 392.561 774.041 369.912 749.651C366.946 747.01 352.353 726.91 361.066 742.607C380.083 773.505 410.879 796.043 443.81 810.515C468.149 820.251 495.029 826.536 520.643 829.653C531.391 830.797 542.028 831.454 552.867 831.444C554.213 831.718 569.606 830.564 567.632 831.778C561.762 833.468 554.648 834.086 548.596 834.703C541.36 835.553 533.82 835.624 525.461 835.533C518.144 835.503 511.292 835.806 504.147 834.966C484.332 832.79 464.294 829.299 445.065 823.925C406.324 812.62 368.201 792.794 342.728 760.945C325.514 739.49 313.481 712.782 314.675 684.87C315.404 674.699 318.339 664.427 322.225 655.268C331.353 634.248 346.868 616.264 365.459 603.036C377.967 595.183 390.84 587.451 404.412 581.672C421.211 575.104 439.772 572.533 457.402 568.505C462.199 567.554 467.451 566.319 471.874 565.459C473.179 565.156 475.497 564.933 476.478 565.318C478.432 566.704 469.698 569.821 468.382 570.388C462.28 572.705 455.56 575.539 449.457 578.606C432.951 586.621 416.647 596.377 403.673 609.574C355.693 658.061 366.633 723.874 419.774 763.03C447.038 783.352 480.021 794.12 513.296 799.767C533.344 802.945 553.494 804.878 573.785 802.834C642.887 796.215 704.337 749.955 728.079 684.556C753.026 618.996 736.145 542.658 688.327 491.853C682.629 485.498 674.897 479.071 668.967 473.171C668.845 473.039 668.744 472.928 668.653 472.827C668.471 472.604 668.37 472.473 668.4 472.402C670.566 473.465 672.408 475.175 674.553 476.855C689.147 488.473 701.402 503.188 712.656 517.741L712.767 517.883L712.778 517.903Z" fill="#003366"/>
<path d="M667.614 367.625C670.645 368.857 668.153 370.637 662.007 371.025C656.3 373.738 650.774 376.409 645.511 379.719C634.278 386.621 624.107 395.517 616.506 406.346C609.554 416.193 604.079 426.981 599.687 438.174C595.497 448.902 593.058 460.126 589.536 471.076C579.689 503.077 561.857 530.311 532.801 547.839C516.518 558.041 497.805 564.042 478.941 567.412C473.648 568.232 463.098 567.745 457.775 567.805C457.35 567.775 459.31 567.609 459.199 567.488C459.118 567.407 459.449 566.064 461.335 566.064C463.349 564.141 470.632 565.58 473.436 563.911C473.82 563.769 466.35 567.549 464.539 567.61C457.009 569.159 459.945 566.673 452.385 568.313C436.041 572.574 441.888 569.36 425.382 573.539C416.871 575.665 417.508 574.124 423.246 571.048C432.206 567.488 422.925 570.742 432.206 568.019C466.685 559.67 498.787 541.595 518.127 511.163C534.218 488.473 538.044 460.004 549.378 435.098C557.92 416.638 571.319 400.304 588.898 389.829C601.083 382.34 613.673 378.778 628.094 375.296C639.075 372.594 649.661 369.7 660.803 367.777C662.493 367.392 668.191 366.522 667.624 367.554V367.594L667.614 367.625Z" fill="#003366"/>
<path d="M771.926 346.888C730.251 350.484 706.876 353.233 665.195 359.695C665.195 359.695 661.389 374.552 677.764 368.857C694.138 363.161 813.601 343.291 771.926 346.888Z" fill="#003366"/>
<path d="M683.988 367.625C683.36 368.677 681.174 369.639 678.381 371.025C672.673 373.738 667.148 376.409 661.885 379.719C650.651 386.621 640.48 395.517 632.88 406.346C625.927 416.193 620.452 426.981 616.06 438.174C611.87 448.902 609.431 460.126 605.91 471.076C596.062 503.077 578.23 530.311 549.175 547.839C532.891 558.041 514.179 564.042 495.315 567.412C490.022 568.232 479.472 567.745 474.149 567.805C473.724 567.775 475.684 567.609 475.573 567.488C475.492 567.407 475.822 566.064 477.708 566.064C479.722 564.141 487.006 565.58 489.809 563.911C490.194 563.769 482.724 567.549 480.912 567.61C473.383 569.159 476.319 566.673 468.759 568.313C452.415 572.574 434.077 575.276 417.571 579.456C409.06 581.581 409.359 577.815 418.36 576.116C427.87 572.475 439.299 570.742 448.579 568.019C483.059 559.67 515.161 541.595 534.501 511.163C550.592 488.473 554.417 460.004 565.752 435.098C574.294 416.638 587.693 400.304 605.272 389.829C617.457 382.34 630.046 378.778 644.468 375.296C655.448 372.594 666.034 369.7 677.177 367.777C678.867 367.392 684.565 366.522 683.998 367.554V367.594L683.988 367.625Z" fill="#335A8B"/>
<path d="M590.551 336.82C624.012 335.396 663.88 354.975 663.88 354.975C631.131 347.499 578.539 349.596 524.34 391.283C524.34 391.283 557.09 338.244 590.551 336.82Z" fill="#335A8B"/>
<path d="M823.711 337.532C759.976 342.646 724.268 346.252 660.677 354.263C660.677 354.263 661.745 363.162 678.476 361.026C695.206 358.89 887.446 332.419 823.711 337.532Z" fill="#003366"/>
<path d="M610.511 375.933C596.816 380.936 592.732 359.514 606.713 358.181C616.207 357.957 619.458 371.842 610.745 375.828L610.511 375.933Z" fill="white"/>
<path d="M611.998 373.318C602.138 376.781 599.198 361.951 609.264 361.028C616.1 360.872 618.441 370.485 612.167 373.245L611.998 373.318Z" fill="black"/>
<path fill-rule="evenodd" clip-rule="evenodd" d="M836.523 334.688C812.199 360.633 807.589 378.155 808.079 388.373C808.865 404.801 823.371 412.288 836.516 412.289H836.522C849.668 412.289 864.174 404.81 864.966 388.384C865.459 378.164 860.851 360.639 836.523 334.688ZM836.523 398.254C838.084 398.254 839.35 399.517 839.35 401.071C839.35 402.628 838.084 403.889 836.523 403.889C830.663 403.889 825.207 402.073 821.555 398.906C817.031 394.981 815.519 389.113 817.06 381.46C817.367 379.935 818.857 378.947 820.389 379.252C821.92 379.558 822.912 381.044 822.605 382.569C821.477 388.168 822.348 392.123 825.268 394.655C827.867 396.909 832.074 398.254 836.523 398.254Z" fill="#003366"/>
<path d="M479.561 738.38C467.321 738.38 456.781 736.17 447.941 731.75C439.101 727.217 432.301 721.04 427.541 713.22C422.781 705.4 420.401 696.333 420.401 686.02C420.401 675.593 422.214 666.073 425.841 657.46C429.468 648.733 434.568 641.197 441.141 634.85C447.714 628.39 455.534 623.403 464.601 619.89C473.781 616.377 483.811 614.62 494.691 614.62C506.931 614.62 517.471 616.887 526.311 621.42C535.151 625.84 541.951 631.96 546.711 639.78C551.471 647.6 553.851 656.667 553.851 666.98C553.851 677.407 552.038 686.983 548.411 695.71C544.784 704.323 539.684 711.86 533.111 718.32C526.538 724.667 518.661 729.597 509.481 733.11C500.414 736.623 490.441 738.38 479.561 738.38ZM482.451 710.5C488.344 710.5 493.558 709.423 498.091 707.27C502.738 705.117 506.648 702.113 509.821 698.26C513.108 694.293 515.601 689.817 517.301 684.83C519.001 679.843 519.851 674.573 519.851 669.02C519.851 663.693 518.718 659.047 516.451 655.08C514.298 651.113 511.124 648.053 506.931 645.9C502.851 643.633 497.808 642.5 491.801 642.5C486.021 642.5 480.808 643.577 476.161 645.73C471.514 647.883 467.548 650.943 464.261 654.91C461.088 658.763 458.651 663.183 456.951 668.17C455.251 673.157 454.401 678.427 454.401 683.98C454.401 689.193 455.478 693.84 457.631 697.92C459.898 701.887 463.071 705.003 467.151 707.27C471.344 709.423 476.444 710.5 482.451 710.5ZM620.441 738.38C613.641 738.38 607.124 737.813 600.891 736.68C594.657 735.66 588.991 734.187 583.891 732.26C578.791 730.22 574.427 728.01 570.801 725.63L584.061 700.47C588.141 702.963 592.334 705.117 596.641 706.93C601.061 708.63 605.537 709.933 610.071 710.84C614.604 711.747 619.137 712.2 623.671 712.2C627.977 712.2 631.661 711.803 634.721 711.01C637.781 710.103 640.104 708.857 641.691 707.27C643.277 705.683 644.071 703.813 644.071 701.66C644.071 699.28 642.994 697.41 640.841 696.05C638.801 694.577 636.081 693.33 632.681 692.31C629.281 691.29 625.484 690.27 621.291 689.25C617.211 688.117 613.074 686.813 608.881 685.34C604.801 683.753 601.061 681.827 597.661 679.56C594.261 677.18 591.484 674.177 589.331 670.55C587.291 666.923 586.271 662.447 586.271 657.12C586.271 648.507 588.594 641.027 593.241 634.68C597.887 628.333 604.461 623.403 612.961 619.89C621.574 616.377 631.717 614.62 643.391 614.62C651.891 614.62 659.824 615.527 667.191 617.34C674.557 619.04 680.904 621.533 686.231 624.82L673.991 649.81C669.344 646.863 664.187 644.653 658.521 643.18C652.967 641.593 647.244 640.8 641.351 640.8C636.817 640.8 632.907 641.31 629.621 642.33C626.447 643.35 624.011 644.767 622.311 646.58C620.724 648.28 619.931 650.207 619.931 652.36C619.931 654.627 620.951 656.497 622.991 657.97C625.031 659.443 627.751 660.69 631.151 661.71C634.664 662.73 638.461 663.807 642.541 664.94C646.734 665.96 650.871 667.207 654.951 668.68C659.031 670.04 662.827 671.91 666.341 674.29C669.854 676.557 672.631 679.447 674.671 682.96C676.711 686.473 677.731 690.837 677.731 696.05C677.731 704.55 675.407 711.973 670.761 718.32C666.114 724.667 659.484 729.597 650.871 733.11C642.257 736.623 632.114 738.38 620.441 738.38Z" fill="#003366"/>
</svg>
